<svg width="153" height="25" viewBox="0 0 153 25" fill="none" xmlns="http://www.w3.org/2000/svg">
<path d="M23.1276 0C16.2197 0 10.5911 5.61224 10.5911 12.5C10.5911 19.3878 16.2197 25 23.1276 25C30.0355 25 35.6641 19.3878 35.6641 12.5C35.6641 5.61224 30.0355 0 23.1276 0ZM23.0764 20.9184C18.42 20.9184 14.6335 17.1429 14.6335 12.5C14.6335 7.85714 18.42 4.08163 23.0764 4.08163C27.7328 4.08163 31.5194 7.85714 31.5194 12.5C31.5705 17.1429 27.784 20.9184 23.0764 20.9184Z" fill="#0F2235"/>
<path d="M141.999 0.254425C141.026 0.254425 140.412 0.764629 139.952 1.83606L131.202 21.4789C130.997 21.8871 130.895 22.3463 130.895 22.7034C130.895 23.7238 131.816 24.5912 132.942 24.5912C133.811 24.5912 134.63 24.081 134.937 23.2136L141.947 6.78504L148.958 23.2136C149.316 24.0299 150.083 24.5912 150.953 24.5912C152.079 24.5912 153 23.7238 153 22.7034C153 22.2952 152.898 21.8871 152.693 21.4789L144.045 1.83606C143.585 0.764629 142.92 0.254425 141.999 0.254425Z" fill="#0F2235"/>
<path d="M62.5774 9.5919V22.449C62.5774 23.6225 63.5496 24.6429 64.7265 24.6429C65.9034 24.6429 66.9268 23.6735 66.9268 22.449V2.29598C66.9268 1.02047 65.9546 0.357208 64.9824 0.357208C64.0613 0.357208 63.2426 1.07149 62.7821 1.8368L53.8786 17.7552L46.4078 4.18374L40.9839 10.7144V22.449C40.9839 23.6225 42.0073 24.6429 43.1842 24.6429C44.3099 24.6429 45.2821 23.6735 45.2821 22.449V9.64292L52.0877 22.398C52.497 23.1633 53.1622 23.6225 53.9298 23.6225C54.6973 23.6225 55.3625 23.1633 55.7719 22.398L62.5774 9.5919Z" fill="#0F2235"/>
<path d="M100.241 15.1524V4.28504H103.004C108.07 4.28504 110.629 6.9381 110.629 12.1932C110.629 16.785 108.889 19.3871 105.307 20.1014C105.205 20.1014 104.898 20.1524 104.898 20.1524C103.823 20.3565 103.056 21.4789 103.311 22.5503C103.516 23.6218 104.642 24.3361 105.716 24.132H105.819C111.754 23.1116 115.439 18.6218 115.439 12.1932C115.439 5.05034 110.475 0.254425 103.056 0.254425H97.8875C96.5059 0.254425 95.5337 1.22381 95.5337 2.60136V20.8157L100.241 15.1524Z" fill="#0F2235"/>
<path d="M75.8365 0.305817C74.4549 0.305817 73.4827 1.2752 73.4827 2.65276V22.2446C73.4827 23.6221 74.4549 24.5915 75.8365 24.5915H88.5265C89.5499 24.5915 90.4198 23.7752 90.4198 22.7548C90.4198 21.7854 89.5499 20.9181 88.5265 20.9181H77.7809V14.1834H83.8701C84.8935 14.1834 85.7122 13.367 85.7122 12.3977C85.7122 11.4283 84.8935 10.663 83.8701 10.663H77.7809V3.97929H88.2195C89.2429 3.97929 90.1127 3.11194 90.1127 2.09153C90.1127 1.12214 89.2429 0.305817 88.2195 0.305817H75.8365Z" fill="#0F2235"/>
<path d="M124.038 0.254425C123.731 0.254425 123.424 0.305445 123.168 0.458507C122.4 0.81565 121.888 1.63198 121.888 2.55034V22.4483C121.888 23.6728 122.861 24.6422 124.089 24.6422C125.266 24.6422 126.238 23.6218 126.238 22.4483V2.39728C126.238 1.683 125.828 0.968711 125.214 0.560548C124.805 0.356466 124.396 0.254425 124.038 0.254425Z" fill="#0F2235"/>
<path d="M2.20029 0.305817C1.02339 0.305817 0 1.2752 0 2.44867V22.4487C0 23.6732 0.97222 24.6426 2.20029 24.6426C3.37719 24.6426 4.34941 23.6221 4.34941 22.4487V2.44867C4.29824 1.2752 3.32602 0.305817 2.20029 0.305817Z" fill="#0F2235"/>
</svg>
